<?xml version="1.0" standalone="no"?>
<!DOCTYPE svg PUBLIC "-//W3C//DTD SVG 20010904//EN"
 "http://www.w3.org/TR/2001/REC-SVG-20010904/DTD/svg10.dtd">
<svg version="1.0" xmlns="http://www.w3.org/2000/svg"
 width="700.000000pt" height="700.000000pt" viewBox="0 0 700.000000 700.000000"
 preserveAspectRatio="xMidYMid meet">
<metadata>
Created by potrace 1.14, written by Peter Selinger 2001-2017
</metadata>
<g transform="translate(0.000000,700.000000) scale(0.100000,-0.100000)"
fill="#000000" stroke="none">
<path d="M3108 5575 c-1 -1 -33 -5 -70 -9 -228 -20 -514 -125 -723 -266 -279
-189 -493 -455 -619 -772 -25 -63 -73 -231 -82 -287 -3 -14 -6 -37 -9 -51 -2
-14 -7 -52 -11 -85 -3 -33 -7 -61 -8 -62 0 0 -25 -4 -55 -8 -352 -44 -686
-253 -882 -550 -260 -393 -281 -896 -54 -1295 168 -297 438 -508 771 -605 151
-44 255 -54 509 -51 257 4 290 8 423 42 194 51 376 149 592 321 92 74 370 343
370 358 0 10 -12 25 -98 120 l-40 45 -119 -121 c-259 -265 -532 -453 -733
-504 -152 -39 -210 -44 -460 -41 -226 3 -252 5 -342 29 -382 102 -668 372
-772 730 -83 286 -30 606 142 862 101 149 274 293 440 365 111 48 199 69 342
84 117 12 161 28 175 64 3 9 8 46 11 82 13 200 29 287 76 425 47 138 144 321
218 409 120 143 186 206 308 293 247 177 534 264 852 257 85 -1 164 -5 175 -7
11 -3 40 -8 65 -12 377 -60 749 -312 942 -638 56 -93 68 -100 191 -103 185 -4
273 -20 382 -68 150 -67 268 -188 333 -343 25 -58 62 -205 62 -244 0 -25 -1
-25 -77 -27 -115 -3 -186 -10 -313 -32 -80 -15 -89 -16 -160 -35 -298 -77
-607 -246 -859 -469 -85 -75 -340 -331 -341 -341 0 -10 12 -24 98 -120 l39
-44 174 173 c172 170 212 205 372 319 310 221 666 331 1067 331 350 -1 625
-139 796 -400 108 -164 161 -348 161 -559 1 -295 -99 -548 -291 -741 -245
-245 -576 -331 -1034 -269 -130 18 -339 84 -488 156 -95 45 -267 146 -272 160
-2 5 -8 9 -13 9 -11 0 -112 76 -226 172 -96 80 -319 300 -453 447 -272 299
-339 370 -505 537 -93 94 -201 199 -240 232 l-70 62 367 0 c284 0 367 3 370
13 2 6 3 55 3 107 l0 95 -501 2 c-457 2 -503 1 -534 -15 -19 -9 -40 -28 -47
-42 -10 -19 -12 -141 -10 -530 l2 -505 108 0 108 0 -1 315 c-1 173 -1 330 -1
348 l1 33 33 -23 c35 -25 401 -387 488 -483 266 -295 548 -583 699 -716 378
-331 751 -525 1125 -585 68 -11 95 -15 140 -20 67 -7 321 -7 365 0 19 4 60 11
90 16 30 5 66 11 80 14 14 2 60 16 102 30 252 84 468 247 610 462 101 151 156
285 195 467 25 118 24 380 -1 502 -91 435 -357 743 -752 869 -43 14 -95 28
-114 31 -64 11 -70 14 -70 49 0 153 -88 399 -192 534 -131 170 -349 296 -568
328 -30 4 -58 9 -62 10 -5 1 -46 2 -92 3 l-83 1 -38 58 c-114 173 -285 339
-470 458 -186 118 -462 215 -690 241 -51 5 -322 13 -327 8z"/>
</g>
</svg>
